<svg xmlns="http://www.w3.org/2000/svg" width="32" height="32" viewBox="0 0 32 32" fill="none">
        <path d="M15.9999 2.66669V5.33335M27.9999 6.66669L25.9999 8.66669M3.99992 6.66669L5.99992
         8.66669M16 29.3334C20.8056 29.3334 25.0845 26.206 27.8362 23.5719C29.8323 21.6611 29.8323 18.339
          27.8362 16.4282C25.0845 13.794 20.8056 10.6667 16 10.6667C11.1944 10.6667 6.91544 13.794 4.1637
           16.4282C2.1676 18.339 2.1676 21.6611 4.1637 23.5719C6.91545 26.206 11.1944 29.3334 16 29.3334ZM19.9999
            20C19.9999 22.2092 18.2091 24 15.9999 24C13.7908 24 11.9999 22.2092 11.9999 20C11.9999 17.7909 13.7908
             16 15.9999 16C18.2091 16 19.9999 17.7909 19.9999 20Z" stroke="#28303F" stroke-width="1.5" stroke-linecap="round"/>
</svg>